# xmcd
#
# Track frame offsets:
#	150
#	13192
#	28886
#	40479
#	50598
#	59529
#	72221
#	84272
#	94594
#	106104
#	119751
#	128307
#	138279
#	147042
#	159791
#	179393
#	191282
#	202716
#	212551
#
# Disc length: 2969 seconds
#
# Revision: 1
# Processed by: cddbd v1.5PL3 Copyright (c) Steve Scherf et al.
# Submitted via: EasyCDDAExtractor 6.2.0.3
#
DISCID=fb0b9713
DTITLE=Femmes de Paris
DYEAR=1900
DGENRE=Ballad
TTITLE0=Marie Laforet
TTITLE1=Jacqueline Taieb
TTITLE2=Eileen
TTITLE3=Violaine
TTITLE4=Tiny Yong
TTITLE5=Michele Arnaud
TTITLE6=Jocelyne
TTITLE7=Liz Brady
TTITLE8=Stone
TTITLE9=Elizabeth
TTITLE10=Christine Pilzer
TTITLE11=Cosette
TTITLE12=Christie Laume
TTITLE13=Adele
TTITLE14=Patricia
TTITLE15=Annie Philippe
TTITLE16=Brigitte Bardo
TTITLE17=Stone
TTITLE18=Jacqueline Taieb
EXTD=
EXTT0=
EXTT1=
EXTT2=
EXTT3=
EXTT4=
EXTT5=
EXTT6=
EXTT7=
EXTT8=
EXTT9=
EXTT10=
EXTT11=
EXTT12=
EXTT13=
EXTT14=
EXTT15=
EXTT16=
EXTT17=
EXTT18=
PLAYORDER=
